<svg width="49" height="49" viewBox="0 0 49 49" fill="none" xmlns="http://www.w3.org/2000/svg">
<g clip-path="url(#clip0_1_2185)">
<path d="M17 2.21875C9.98571 4.49034 4.44144 10.0897 2.19434 17.1804C6.02177 16.7824 9.56569 15.0522 12.3168 12.218C14.9892 9.46341 16.6168 5.97111 17 2.21875Z" fill="#A36F26"/>
<path d="M2.19434 31.314C4.44669 38.4047 9.98571 44.0041 17 46.2757C16.6168 42.5233 14.9892 39.0257 12.3168 36.2711C9.56569 33.4369 6.02177 31.7067 2.19434 31.314Z" fill="#A36F26"/>
<path d="M30.9717 46.2757C37.986 44.0041 43.525 38.4047 45.7774 31.314C41.95 31.7067 38.406 33.4369 35.6549 36.2711C32.9825 39.031 31.3549 42.5233 30.9717 46.2757Z" fill="#A36F26"/>
<path d="M45.7774 17.1804C43.5303 10.0897 37.986 4.49034 30.9717 2.21875C31.3549 5.97642 32.9825 9.46872 35.6549 12.2233C38.406 15.0575 41.95 16.7877 45.7774 17.1804Z" fill="#A36F26"/>
<path d="M3.0819 23.3528C5.57052 23.0715 7.96988 22.3762 10.2327 21.2935C17.2313 17.9922 22.2978 10.8856 23.1063 3.11547C23.1063 3.07301 23.1431 3.04117 23.1851 3.04117H24.7864C24.8284 3.04117 24.8599 3.07301 24.8652 3.11547C25.6737 10.8856 30.7402 17.9922 37.7388 21.2935C39.0094 21.8985 40.3272 22.3921 41.6765 22.7477C43.2201 23.1617 44.8109 23.3634 46.407 23.3634H47.8928C47.9348 23.3634 47.9715 23.3262 47.9715 23.2838V20.5345C47.9715 20.4921 47.9348 20.4549 47.8928 20.4549C47.4413 20.4655 46.995 20.4549 46.554 20.4337C36.421 19.9454 28.2411 11.6711 27.7581 1.43301C27.7371 0.987185 27.7266 0.536052 27.7371 0.0796117C27.7371 0.0318447 27.7003 0 27.6583 0H20.3132C20.2712 0 20.2345 0.0318447 20.2345 0.0796117C20.245 0.536052 20.2345 0.987185 20.2135 1.43301C19.7304 11.6711 11.5505 19.9454 1.41757 20.4337C0.976547 20.4549 0.530275 20.4655 0.0787538 20.4549C0.0367518 20.4549 0 20.4921 0 20.5345V27.9543C0 28.0021 0.0367518 28.0392 0.0787538 28.0392C0.530275 28.0286 0.976547 28.0392 1.41757 28.0605C11.5505 28.5488 19.7304 36.8178 20.2135 47.0611C20.2345 47.507 20.245 47.9581 20.2345 48.4145C20.2345 48.457 20.2712 48.4941 20.3132 48.4941H27.6583C27.7003 48.4941 27.7371 48.457 27.7371 48.4145C27.7266 47.9581 27.7371 47.507 27.7581 47.0611C28.2411 36.8178 36.421 28.5488 46.554 28.0605C46.995 28.0392 47.4413 28.0286 47.8928 28.0392C47.9348 28.0392 47.9715 28.0021 47.9715 27.9543V25.1095C47.9715 25.0618 47.9348 25.0246 47.8928 25.0246H24.0671C24.0199 25.0246 23.9831 25.0618 23.9831 25.1095V27.7845C23.9831 27.8269 24.0199 27.8641 24.0671 27.8641H36.148C36.232 27.8641 36.2582 27.9756 36.19 28.018C34.4364 29.0317 32.8298 30.2737 31.386 31.7279C27.7686 35.3741 25.427 40.2464 24.8652 45.3734C24.8599 45.4158 24.8284 45.4477 24.7864 45.4477H23.1851C23.1431 45.4477 23.1063 45.4158 23.1063 45.3734C22.5446 40.2464 20.203 35.3741 16.5803 31.7279C12.9786 28.0658 8.15889 25.704 3.0819 25.1361C3.04515 25.1308 3.01364 25.0989 3.01364 25.0565V23.4324C3.01364 23.3952 3.04515 23.3581 3.0819 23.3528Z" fill="#A36F26"/>
</g>
<defs>
<clipPath id="clip0_1_2185">
<rect width="48.4941" height="48.4941" fill="white"/>
</clipPath>
</defs>
</svg>
