<svg width="24" height="24" viewBox="0 0 24 24" fill="none" xmlns="http://www.w3.org/2000/svg">
<g clip-path="url(#clip0_1_2169)">
<path fill-rule="evenodd" clip-rule="evenodd" d="M8.56953 18V9.97969H5.99609V18H8.56953ZM7.37891 8.76562C8.23672 8.76562 8.77109 8.15156 8.77109 7.38281C8.75703 6.6 8.23672 6 7.39297 6C6.54922 6 6.00078 6.6 6.00078 7.38281C6.00078 8.15156 6.53516 8.76562 7.36016 8.76562H7.37891ZM15.0289 9.79688C13.6648 9.79688 13.0789 10.5656 12.7039 11.1V9.98438H10.1258V18H12.7039V13.4344C12.7039 13.2 12.7227 12.9656 12.793 12.8016C12.9805 12.3328 13.4023 11.85 14.1148 11.85C15.0477 11.85 15.4227 12.5672 15.4227 13.6172V18H18.0008V13.3172C18.0008 10.9125 16.7258 9.79688 15.0289 9.79688Z" fill="#D6CCB3"/>
<path d="M19.5563 3H4.5375C3.71719 3 3 3.59063 3 4.40156V19.4531C3 20.2687 3.71719 20.9953 4.5375 20.9953H19.5516C20.3766 20.9953 20.9953 20.2641 20.9953 19.4531V4.40156C21 3.59063 20.3766 3 19.5563 3ZM19.4062 19.5H4.64531C4.56094 19.5 4.5 19.4344 4.5 19.3547V4.59375C4.5 4.54219 4.54688 4.5 4.59375 4.5H19.4062C19.4531 4.5 19.5 4.54688 19.5 4.59375V19.4062C19.5 19.4484 19.4578 19.5 19.4062 19.5Z" fill="#D6CCB3"/>
</g>
<defs>
<clipPath id="clip0_1_2169">
<rect width="24" height="24" fill="white"/>
</clipPath>
</defs>
</svg>
